<?xml version="1.0" encoding="utf-8"?>
<!-- Generator: Adobe Illustrator 25.2.0, SVG Export Plug-In . SVG Version: 6.00 Build 0)  -->
<svg version="1.1" id="Calque_1" xmlns="http://www.w3.org/2000/svg" xmlns:xlink="http://www.w3.org/1999/xlink" x="0px" y="0px"
	 viewBox="0 0 928 633" style="enable-background:new 0 0 928 633;" xml:space="preserve">
<style type="text/css">
	.st0{fill:#ECEFF7;}
	.st1{fill:#FFFFFF;}
	.st2{fill:#3C64B1;}
</style>
<rect y="56" class="st0" width="924" height="573"/>
<path class="st1" d="M919.8,58H8.2C5.3,58,3,55.7,3,52.8V8.2C3,5.3,5.3,3,8.2,3h911.6c2.9,0,5.2,2.3,5.2,5.2v44.6
	C925,55.7,922.7,58,919.8,58z"/>
<g>
	<path class="st2" d="M464.2,632.6c-148.6,0-297.3,0-445.9,0c-2.3,0-4.7,0.1-7-0.2c-6.9-0.8-11-5.5-11.3-12.4c0-1.2,0-2.3,0-3.5
		c0-200,0-399.9,0-599.9c0-1.5,0-3,0-4.5c0.4-6,3.6-10,9.5-11.3c2.6-0.5,5.3-0.5,7.9-0.5c298,0,595.9,0,893.9,0c2,0,4-0.1,6,0.1
		c6.4,0.7,10.5,5.1,11,11.6c0.1,1.8,0.1,3.7,0.1,5.5c0,199.3,0,398.6,0,597.9c0,1.5,0,3,0,4.5c-0.3,7-4.8,11.9-11.8,12.6
		c-2.1,0.2-4.3,0.1-6.5,0.1C761.5,632.6,612.9,632.6,464.2,632.6z M464.2,59.7c-150.7,0-301.3,0-452,0c-1.8,0-3.7,0-5.5,0
		c-2.2,0-3.4,1.2-3.4,3.4c0,1.7-0.1,3.3-0.1,5c0,182.5,0,365,0,547.5c0,1.5,0,3,0,4.5c0.3,5.6,3.5,8.8,9.1,9.1c1.8,0.1,3.7,0,5.5,0
		c297.5,0,595,0,892.5,0c2.2,0,4.4,0.1,6.5-0.1c4.7-0.6,7.5-3.3,8.1-8.1c0.2-1.8,0.1-3.7,0.1-5.5c0-182.7,0-365.3,0-548
		c0-1.5,0-3-0.1-4.5c0-2.2-1.1-3.4-3.4-3.4c-1.8,0-3.7,0-5.5,0C765.5,59.7,614.9,59.7,464.2,59.7z M463.9,56.5
		c150.5,0,301,0,451.5,0c1.8,0,3.7-0.1,5.5,0c2.9,0.1,4.3-1.1,4.3-4.1c-0.1-13.5,0-27-0.1-40.5c-0.1-4.7-3.1-7.3-7.5-8
		c-2.1-0.4-4.3-0.2-6.5-0.2c-298,0-595.9,0-893.9,0c-2.2,0-4.4-0.2-6.5,0.2c-4.4,0.8-7.4,3.2-7.5,8c-0.1,13.5,0,27-0.1,40.5
		c0,3,1.4,4.2,4.3,4.2c1.8,0,3.7,0,5.5,0C163.3,56.5,313.6,56.5,463.9,56.5z"/>
	<path class="st2" d="M33.9,30.2c-0.1,4.7-4,8.5-8.7,8.5c-4.7,0-9-4.3-8.8-8.9c0.2-4.4,4.5-8.4,9.1-8.3C30,21.6,33.9,25.6,33.9,30.2
		z M25,35.7c3.3-0.1,5.5-2,5.8-5.3c0.3-3.2-1.6-5.4-4.9-5.7c-3.5-0.3-5.9,1.4-6.2,4.9C19.2,33.2,21.1,35.2,25,35.7z"/>
	<path class="st2" d="M86.3,30.2c0,4.9-3.6,8.5-8.6,8.5c-4.9,0-8.6-3.5-8.7-8.3c-0.1-4.8,4.1-9,8.8-8.9
		C82.6,21.5,86.4,25.4,86.3,30.2z M83.2,30.3c-0.1-3.2-1.4-5.5-4.9-5.6c-3.4-0.1-5.8,1.3-6,5.1c-0.2,3.6,1.6,5.8,5.1,5.9
		C81,35.8,83,33.9,83.2,30.3z"/>
	<path class="st2" d="M51.6,21.4c4.5,0.2,8.7,4.4,8.6,8.7c-0.1,4.9-4.2,8.7-9.2,8.5c-4.9-0.3-8.4-4-8.2-8.9C43,25,47,21.3,51.6,21.4
		z M51.4,24.6c-3.6,0.2-5.4,2.1-5.7,5.3c-0.3,3,3,6.1,6.1,5.8c3.3-0.3,5.2-2.3,5.1-5.6C56.9,26.5,54.7,24.8,51.4,24.6z"/>
</g>
<path class="st2" d="M720,260.1c-2.1,4.7-6.5,6.5-10.8,8.2c-12.5,4.9-25,9.8-37.5,14.4c-4.2,1.5-5.8,3.4-4.2,8c1.8,4.8,2,10,2,15.2
	c-0.1,26.8,0,53.6-0.1,80.3c0,3.2,0.7,5.4,3.4,7.6c7.4,6.1,8.3,14.6,6,23.1c-4.6,17.8-11.5,34.9-18.3,52c-0.4,0.9-0.5,2.2-1.6,2.2
	c-1.4,0.1-1.7-1.4-2.1-2.4c-2.4-6-4.9-11.9-7-18c-3.9-11.4-8.8-22.5-11.3-34.4c-1.9-9.2-0.6-17.6,7.4-23.7c1.8-1.4,2-2.9,2-4.8
	c0-26.3,0.1-52.6-0.1-78.8c0-4.1-1-8.2-1.6-12.2c-0.4-2.5-1.5-3.4-4.1-2.3c-6.7,2.8-13.5,5.4-20.4,7.9c-3.2,1.1-3,3.5-3,6
	c0,23-0.7,45.9,0.2,68.8c0.9,19.9-8.1,33.5-23.7,44c-17.7,11.9-37.7,18.3-58.4,22.8c-14.4,3.1-29,4.9-43.6,6.2
	c-16,1.4-31.9,1.4-47.8,0.6c-35.2-1.8-69.8-7.2-101.7-23.8c-11-5.7-20.8-13-27.5-23.7c-3.6-5.8-5.6-12-5.6-18.7
	c0-25.3-0.1-50.6,0-75.8c0-3.6-0.9-5.5-4.6-6.9c-30-11.6-59.8-23.4-89.7-35.2c-6-2.4-8-5.7-7.5-11.8c0.3-5,3.5-8.4,8.9-10
	c25.7-7.8,51.3-15.6,76.9-23.4c37.1-11.3,74.1-22.5,111.2-33.7c15-4.6,30.3-8.6,45-14c10.4-3.8,19.9-2.4,30,0.7
	c36.7,11.4,73.4,22.5,110.1,33.7c40.4,12.3,80.7,24.6,121.1,36.8c3.6,1.1,5.8,3.7,8.1,6.3C720,254.1,720,257.1,720,260.1z
	 M675.5,257.4c-4.5-1.5-7.8-2.6-11.1-3.6c-36.7-11.1-73.5-22.2-110.2-33.4c-25.5-7.8-50.9-15.8-76.4-23.4c-5.5-1.6-11-4.8-17.3-2.8
	c-16.2,5.1-32.6,10-48.9,15c-20.9,6.4-41.8,12.8-62.7,19.2c-31.4,9.5-62.9,19-95.2,28.8c2.6,1.1,4.3,1.9,6.1,2.6
	c35.5,13.9,70.9,27.7,106.4,41.6c31.4,12.3,62.9,24.7,94.3,37c2.5,1,5,1.4,7.7,0.2c3-1.4,6.2-2.4,9.3-3.6
	c35.1-13.8,70.3-27.6,105.4-41.4c10.8-4.2,21.6-8.5,32.5-12.7c-3.8-2-7.7-1.5-11.5-2c-13.9-2-27.8-3.7-41.8-5.5
	c-11.6-1.5-23.3-3-34.9-4.5c-14.1-1.8-28.2-3.6-42.3-5.5c-7.4-1-14.8-1.7-22.1-3.2c-6.1-1.2-9.3-6.1-8.6-12c0.6-5.4,5.1-9.4,11-9.3
	c4.5,0.1,8.9,0.6,13.3,1.1c19.7,2.5,39.3,5.2,58.9,7.8c14.2,1.9,28.5,3.9,42.7,5.7c14.1,1.8,28.2,3.3,42.3,5.3
	c9.4,1.3,19.2,1.7,27.6,7.1c0.9,0.6,1.8,0.6,2.8,0.2C660.2,263.4,667.4,260.5,675.5,257.4z M596.9,348.4c0-10.5-0.1-21,0.1-31.4
	c0.1-4-1.2-4.4-4.6-3.1c-40.2,15.8-80.4,31.5-120.6,47.4c-4.8,1.9-9.4,1.8-13.9,0c-15.2-5.8-30.3-11.7-45.4-17.6
	c-25.3-9.9-50.5-19.9-75.8-29.8c-2.8-1.1-4.6-1.6-4.6,2.6c0.1,21.3-0.1,42.6,0.2,63.9c0.1,6.1,2.2,11.4,6.9,15.9
	c8,7.8,17.6,12.9,27.8,16.9c28.7,11.3,58.9,14.9,89.4,16.1c19.9,0.8,39.7-0.9,59.4-4c21.1-3.4,41.8-8.5,60.8-19
	c13.3-7.3,22.2-16.9,20.6-33.5C596.2,364.8,596.9,356.6,596.9,348.4z"/>
</svg>
