<?xml version="1.0" encoding="utf-8"?>
<!-- Generator: Adobe Illustrator 25.2.0, SVG Export Plug-In . SVG Version: 6.00 Build 0)  -->
<svg version="1.1" id="Calque_1" xmlns="http://www.w3.org/2000/svg" xmlns:xlink="http://www.w3.org/1999/xlink" x="0px" y="0px"
	 viewBox="0 0 116.6 170.7" style="enable-background:new 0 0 116.6 170.7;" xml:space="preserve">
<path id="XMLID_164_" d="M0.2,74c13.7,0,27,0,40.5,0c0.1,0.5,0.2,1,0.2,1.5c0,9.6,0,19.3-0.2,28.9c0,2.6-0.4,5.1-0.8,7.7
	c-0.5,2.9-1.4,3.6-4.3,3.9c-1,0.1-2,0.2-3,0.3c-0.7,0.1-1.4,0.3-1.5,1.1c-0.1,0.9,0.7,1.3,1.4,1.4s1.4,0.1,2,0.1
	c4.3-0.1,8.5-0.3,12.8-0.3c5.2,0,10.4,0.3,15.7,0.4c6.5,0.1,13,0.2,19.5,0.2c2.8,0,4-0.7,4.4-3.5c0.7-4.3,1-8.6,1.5-12.9
	c0-0.1,0-0.3,0-0.4c0-0.8-0.2-1.5-1.1-1.8c-0.7-0.2-1.4,0.4-1.6,1.5c-0.3,1.3-0.6,2.7-1,3.9c-0.9,2.9-2.8,4.8-5.8,5.5
	c-1.2,0.3-2.5,0.7-3.8,0.7c-4.2,0-8.4-0.1-12.6-0.3c-0.7,0-1.5-0.3-2.2-0.5c-2.1-0.6-3.5-2-3.7-4.1c-0.3-2.5-0.5-5.1-0.5-7.7
	c-0.1-6,0-11.9,0-17.9c0-0.7,0-1.5,0-2.4c-4.7-1.7-9.4-3.3-14.1-5c0-0.1,0.1-0.2,0.1-0.3c24.6,0,49.3,0,74.1,0
	c0.1,0.6,0.1,1.1,0.1,1.6c0,19.4,0,38.8,0,58.2c0,2.2-0.8,3.6-2.8,4.7C96.2,148.7,79,159,61.7,169.2c-0.6,0.3-1.2,0.7-1.8,1
	c-1.2,0.7-2.5,0.7-3.7,0c-1.1-0.6-2.2-1.3-3.3-1.9c-16.7-9.9-33.3-19.8-50-29.7c-2.1-1.2-2.9-2.7-2.9-5.1c0.1-19.2,0-38.4,0-57.6
	C0.2,75.4,0.2,74.8,0.2,74z"/>
<path id="XMLID_163_" d="M116.4,67.3c-20.2,0-40.1,0-60.1,0c0-10,0-20,0-30.2c1.1,0,2.1,0,3.1,0c3.9,0.1,7.7,0.1,11.6,0.3
	c1.9,0.1,3.8,0.4,5.6,0.8c2.7,0.5,4,2.3,4.4,4.9c0.1,1,0.1,2,0.4,3c0.1,0.5,0.6,1.1,1,1.3c0.7,0.3,1.3-0.3,1.5-1
	c0.2-0.5,0.3-1.1,0.3-1.6c0.4-4.5,0.8-8.9,1.3-13.4c0.2-1.8-0.2-2.2-2-1.9c-2.5,0.4-5.1,0.9-7.6,0.9c-14,0-28.1-0.1-42.1-0.2
	c-1.1,0-2.2,0-3.2,0.1c-0.7,0.1-1.2,0.4-1.2,1.1c0,0.8,0.5,1.2,1.3,1.3c1.4,0.1,2.7,0.1,4.1,0.3c0.9,0.1,1.9,0.3,2.8,0.6
	c1.6,0.5,2.6,1.7,2.9,3.4c0.2,1,0.4,2,0.4,3c0.1,8.6,0.1,17.2,0.2,25.8c0,0.4-0.1,0.8-0.2,1.2C27.4,67,14,67,0.5,67
	c0-0.8-0.1-1.4-0.1-2.1c0-20.6,0-41.2,0-61.9c0-2.8,0.6-3.3,3.4-3.3c36.5,0,73,0,109.5,0c0.4,0,0.8,0,1.2,0c1.3,0.2,1.9,0.8,2.1,2.1
	c0.1,0.5,0,0.9,0,1.4c0,20.5,0,41,0,61.5C116.4,65.7,116.4,66.4,116.4,67.3z"/>
</svg>
